<svg width="33" height="33" viewBox="0 0 33 33" fill="none" xmlns="http://www.w3.org/2000/svg">
<path d="M16.1748 8.53064C15.1859 8.53064 14.2192 8.82388 13.397 9.37329C12.5747 9.9227 11.9338 10.7036 11.5554 11.6172C11.177 12.5309 11.078 13.5362 11.2709 14.5061C11.4638 15.476 11.94 16.3669 12.6393 17.0662C13.3385 17.7654 14.2295 18.2416 15.1994 18.4346C16.1693 18.6275 17.1746 18.5285 18.0882 18.15C19.0019 17.7716 19.7827 17.1307 20.3322 16.3085C20.8816 15.4862 21.1748 14.5195 21.1748 13.5306C21.1748 12.2046 20.648 10.9328 19.7103 9.99511C18.7727 9.05742 17.5009 8.53064 16.1748 8.53064ZM16.1748 16.5306C15.5815 16.5306 15.0014 16.3547 14.5081 16.025C14.0147 15.6954 13.6302 15.2269 13.4032 14.6787C13.1761 14.1305 13.1167 13.5273 13.2325 12.9454C13.3482 12.3634 13.6339 11.8289 14.0535 11.4093C14.473 10.9898 15.0076 10.704 15.5895 10.5883C16.1715 10.4725 16.7747 10.5319 17.3229 10.759C17.871 10.9861 18.3396 11.3706 18.6692 11.8639C18.9989 12.3573 19.1748 12.9373 19.1748 13.5306C19.174 14.326 18.8577 15.0886 18.2953 15.6511C17.7328 16.2135 16.9702 16.5298 16.1748 16.5306Z" fill="black"/>
<path d="M16.1748 2.53064C13.4059 2.53064 10.6991 3.35173 8.39683 4.89007C6.09454 6.4284 4.30012 8.61491 3.2405 11.1731C2.18087 13.7312 1.90362 16.5462 2.44382 19.2619C2.98401 21.9776 4.31738 24.4722 6.27532 26.4301C8.23325 28.3881 10.7278 29.7214 13.4435 30.2616C16.1593 30.8018 18.9742 30.5246 21.5324 29.465C24.0905 28.4053 26.277 26.6109 27.8154 24.3086C29.3537 22.0063 30.1748 19.2996 30.1748 16.5306C30.1706 12.8189 28.6942 9.26041 26.0696 6.63582C23.445 4.01123 19.8865 2.53487 16.1748 2.53064ZM10.1748 26.9076V25.5306C10.1756 24.7352 10.4919 23.9726 11.0544 23.4102C11.6168 22.8478 12.3794 22.5314 13.1748 22.5306H19.1748C19.9702 22.5314 20.7328 22.8478 21.2953 23.4102C21.8577 23.9726 22.174 24.7352 22.1748 25.5306V26.9076C20.3539 27.9707 18.2833 28.531 16.1748 28.531C14.0663 28.531 11.9957 27.9707 10.1748 26.9076ZM24.1678 25.4566C24.1484 24.1446 23.614 22.8928 22.6799 21.9713C21.7459 21.0498 20.487 20.5323 19.1748 20.5306H13.1748C11.8628 20.5326 10.6042 21.0501 9.67033 21.9717C8.73647 22.8932 8.20223 24.1448 8.18281 25.4566C6.36937 23.8374 5.09054 21.7055 4.51565 19.3433C3.94075 16.9811 4.09691 14.5 4.96345 12.2285C5.82999 9.95701 7.36603 8.00231 9.36818 6.62321C11.3703 5.24411 13.7442 4.50567 16.1753 4.50567C18.6065 4.50567 20.9803 5.24411 22.9824 6.62321C24.9846 8.00231 26.5206 9.95701 27.3872 12.2285C28.2537 14.5 28.4099 16.9811 27.835 19.3433C27.2601 21.7055 25.9812 23.8374 24.1678 25.4566Z" fill="black"/>
</svg>
